<?xml version="1.0" encoding="UTF-8"?>
<svg version="1.1" xmlns="http://www.w3.org/2000/svg" width="2000" height="555">
<path d="M0 0 C1.19882813 1.08474609 1.19882813 1.08474609 2.421875 2.19140625 C28.64005212 26.86488185 42.92649913 65.12429475 44.12255859 100.63916016 C45.14965249 146.49904016 36.61405481 190.41010549 4.30078125 225.015625 C-20.83679084 251.24185632 -52.32634849 265.04299197 -88.69921875 265.99609375 C-109.58447539 266.20528864 -129.32624917 261.20494942 -148 252 C-149.73056641 251.14728516 -149.73056641 251.14728516 -151.49609375 250.27734375 C-164.2105268 243.70297848 -174.90561384 235.09438616 -185 225 C-185.33 277.14 -185.66 329.28 -186 383 C-205.47 383 -224.94 383 -245 383 C-245 246.05 -245 109.1 -245 -32 C-225.53 -32 -206.06 -32 -186 -32 C-185.67 -19.13 -185.34 -6.26 -185 7 C-181.535 3.04 -181.535 3.04 -178 -1 C-158.21721395 -22.80143768 -126.82858781 -35.40100548 -97.83984375 -36.93359375 C-59.84989193 -37.5905919 -27.72017116 -26.15532279 0 0 Z M-161 42 C-161.60328125 42.51691406 -162.2065625 43.03382813 -162.828125 43.56640625 C-179.40166566 58.39740175 -187.40757085 84.08985923 -188.91015625 105.67578125 C-188.93980469 106.44277344 -188.96945312 107.20976562 -189 108 C-189.03996094 108.88042969 -189.07992187 109.76085937 -189.12109375 110.66796875 C-189.69445146 135.6596196 -183.11845045 160.5477524 -167 180 C-166.28972656 180.86109375 -165.57945312 181.7221875 -164.84765625 182.609375 C-150.51188824 199.2378581 -131.02203365 210.11014729 -109 212 C-92.77669218 212.97678571 -77.75010602 211.20978572 -63 204 C-62.10023438 203.58105469 -61.20046875 203.16210938 -60.2734375 202.73046875 C-39.66525261 192.4263763 -24.654397 172.92437622 -17.125 151.4375 C-16.38668874 148.96709518 -15.67706651 146.48788754 -15 144 C-14.68160156 142.92621094 -14.36320312 141.85242188 -14.03515625 140.74609375 C-7.6172125 115.22219762 -10.84220429 84.26250596 -24.0703125 61.31640625 C-28.5827537 53.8485355 -33.83166833 47.17882203 -40 41 C-40.75796875 40.23042969 -41.5159375 39.46085937 -42.296875 38.66796875 C-58.39802307 23.22454732 -79.6972562 16.56903069 -101.77490234 16.69946289 C-125.04743084 17.31773473 -144.17429233 25.95755803 -161 42 Z " fill="#E2CDA7" transform="translate(1117,156)"/>
<path d="M0 0 C0.89074219 0.75152344 1.78148437 1.50304687 2.69921875 2.27734375 C32.99221459 28.67353767 48.96378245 66.89641686 51.85498047 106.50830078 C54.53411753 152.54074663 43.13831167 195.614393 13 231 C-2.85922971 248.81803338 -23.30677595 261.07426005 -46 268 C-47.00160156 268.31710937 -48.00320312 268.63421875 -49.03515625 268.9609375 C-81.15744997 278.08710252 -116.9748597 272.30884123 -145.97485352 256.54614258 C-157.58987196 249.97537647 -167.05794157 242.03823494 -177 233 C-177.33 284.81 -177.66 336.62 -178 390 C-197.47 390 -216.94 390 -237 390 C-237 253.05 -237 116.1 -237 -25 C-217.53 -25 -198.06 -25 -178 -25 C-177.67 -12.46 -177.34 0.08 -177 13 C-172.545 8.05 -172.545 8.05 -168 3 C-165.78421145 1.00754688 -163.66667539 -0.8340093 -161.3125 -2.625 C-160.42159668 -3.31009644 -160.42159668 -3.31009644 -159.51269531 -4.0090332 C-112.35615976 -39.47586878 -45.13845012 -38.4695683 0 0 Z M-158.94140625 54.40625 C-177.57969989 77.88979266 -183.39053426 106.09076242 -180.77734375 135.50634766 C-178.35227202 155.56869285 -170.65219628 174.97523103 -157 190 C-156.18917969 190.90363281 -155.37835938 191.80726563 -154.54296875 192.73828125 C-139.36232275 208.80798412 -119.17985728 218.06215022 -97.0625 219.203125 C-73.99443924 219.64587384 -52.2774187 213.33701791 -35.22509766 197.18017578 C-33.80464121 195.79911133 -32.40189564 194.39990148 -31 193 C-29.90365234 191.92105469 -29.90365234 191.92105469 -28.78515625 190.8203125 C-8.7913117 169.83667367 -3.2687604 141.37577678 -3.91113281 113.40625 C-4.8883798 86.94540839 -16.40119654 62.86884569 -35.3125 44.625 C-52.50805392 29.72870933 -75.32439194 22.52345981 -97.93945312 23.83154297 C-122.04812187 25.80251233 -143.03137575 36.02888857 -158.94140625 54.40625 Z " fill="#E3CDA7" transform="translate(257,149)"/>
<path d="M0 0 C0.65645508 0.16097168 1.31291016 0.32194336 1.98925781 0.48779297 C24.16086591 6.15871288 43.06396563 17.896096 60 33 C61.09441406 33.96679688 61.09441406 33.96679688 62.2109375 34.953125 C86.04210309 57.32523964 98.99320286 91.6988906 100.9140625 123.8046875 C101.02956362 128.09922927 101.10048156 132.39146148 101.125 136.6875 C101.12983398 137.45263916 101.13466797 138.21777832 101.13964844 139.00610352 C101.11559215 147.38370476 100.49447096 155.5939936 100 164 C26.74 164 -46.52 164 -122 164 C-116.48065049 191.59674753 -107.09974379 214.40072567 -82.875 230.5625 C-56.8980577 246.31371225 -24.65071827 251.61785421 5.05761719 244.49609375 C25.93261439 239.16452081 41.46063239 228.30753716 58 215 C61.33171848 216.39152707 62.87386765 217.82199901 64.84765625 220.82421875 C65.36545654 221.59894531 65.88325684 222.37367188 66.41674805 223.171875 C66.95984619 224.00203125 67.50294434 224.8321875 68.0625 225.6875 C69.21401825 227.41157917 70.36769799 229.13421646 71.5234375 230.85546875 C72.1019043 231.71833496 72.68037109 232.58120117 73.27636719 233.47021484 C76.66574554 238.44482369 80.26749788 243.26176716 83.85546875 248.09375 C88.01577851 253.73176541 88.01577851 253.73176541 87.88671875 255.92578125 C83.99405218 265.03153433 71.29487015 271.12091376 63 276 C62.37270996 276.37125 61.74541992 276.7425 61.09912109 277.125 C34.3892297 292.68494684 3.35274666 301.45205852 -27.5625 301.3125 C-28.86807861 301.30758545 -30.17365723 301.3026709 -31.51879883 301.29760742 C-73.92396587 300.78952708 -112.99515226 285.04693028 -143 255 C-146.17952403 251.45837729 -149.13248469 247.79736979 -152 244 C-152.59167969 243.22398437 -153.18335938 242.44796875 -153.79296875 241.6484375 C-178.17442995 208.2843327 -185.50765498 165.90971912 -179.75390625 125.390625 C-173.24358621 85.35810849 -153.56000901 47.11871719 -120.13671875 23.03222656 C-100.88698183 9.77624575 -79.13376282 1.22681241 -56 -2 C-55.02921509 -2.13921875 -55.02921509 -2.13921875 -54.03881836 -2.28125 C-36.3888314 -4.55683253 -17.31596861 -4.31399812 0 0 Z M-94 70 C-94.969375 70.70125 -95.93875 71.4025 -96.9375 72.125 C-109.00192069 82.45188184 -116.40348966 98.87678571 -120 114 C-120 114.99 -120 115.98 -120 117 C-66.87 117 -13.74 117 41 117 C41 97.64526529 33.27696185 84.33306169 20 71 C19.29101562 70.25621094 18.58203125 69.51242188 17.8515625 68.74609375 C5.15446027 56.31655498 -14.38039635 50.02864442 -31.82470703 49.95654297 C-54.31276771 50.4057994 -76.45526938 55.14112937 -94 70 Z " fill="#E3CDA7" transform="translate(1369,121)"/>
<path d="M0 0 C41.0049152 -0.92958246 78.70441465 13.74779742 108.52954102 41.69335938 C136.36012765 68.55042117 151.23318812 107.06189692 152.16015625 145.35546875 C152.81068491 189.96221895 140.22902592 229.67732046 108.9765625 262.1171875 C108.33460938 262.82230469 107.69265625 263.52742188 107.03125 264.25390625 C89.10239814 283.38577631 63.18867603 295.34776315 37.9765625 301.1171875 C37.26790039 301.28234863 36.55923828 301.44750977 35.82910156 301.61767578 C14.19702748 306.42204318 -10.43018056 305.90626173 -32.0234375 301.1171875 C-32.77834473 300.95089844 -33.53325195 300.78460938 -34.31103516 300.61328125 C-55.87893942 295.65619749 -76.29525287 285.64874183 -93.0234375 271.1171875 C-93.83039062 270.43140625 -94.63734375 269.745625 -95.46875 269.0390625 C-125.69943239 242.69382832 -142.54965787 206.53197682 -145.74609375 166.7578125 C-148.40037637 126.49412594 -139.40794924 84.21117822 -112.41015625 53.046875 C-108.40961484 48.60182899 -104.2640051 44.33266299 -100.0234375 40.1171875 C-99.4984668 39.56861084 -98.97349609 39.02003418 -98.43261719 38.45483398 C-94.28095502 34.16482233 -89.92271575 30.58325897 -85.0234375 27.1796875 C-84.2814209 26.66317627 -83.5394043 26.14666504 -82.77490234 25.61450195 C-57.96646702 8.6357167 -29.89124155 1.15857525 0 0 Z M-60.1484375 79.7421875 C-79.74920411 100.0677413 -87.18804625 126.66275607 -87.08300781 154.36425781 C-86.57130302 178.01172988 -80.27369863 200.67163357 -65.0234375 219.1171875 C-63.99283203 220.39142578 -63.99283203 220.39142578 -62.94140625 221.69140625 C-48.46357074 238.72568839 -28.05316486 248.57712195 -6.0234375 251.1171875 C10.53222033 252.1130605 25.93073452 250.49300541 40.9765625 243.1171875 C41.89953125 242.67503906 42.8225 242.23289062 43.7734375 241.77734375 C50.95273394 238.11671379 56.95756081 233.44749464 62.9765625 228.1171875 C63.61335937 227.56417969 64.25015625 227.01117188 64.90625 226.44140625 C83.02221309 209.61944052 91.97055116 183.87667379 93.0859375 159.75146484 C94.05454352 128.78634122 86.69603755 101.49801921 65.34375 78.4921875 C30.12973604 43.16195568 -24.97560903 46.60597038 -60.1484375 79.7421875 Z " fill="#E3CDA7" transform="translate(676.0234375,117.8828125)"/>
<path d="M0 0 C22.44 0 44.88 0 68 0 C88.38225598 47.46740151 88.38225598 47.46740151 98.375 71.1875 C105.35953435 87.76555535 112.38400334 104.32616351 119.4375 120.875 C119.91962952 122.00622284 120.40175903 123.13744568 120.89849854 124.302948 C122.83522164 128.84685451 124.77211957 133.39068644 126.70928955 137.93440247 C131.72723719 149.70440547 136.73959003 161.47678658 141.75 173.25 C142.37441483 174.71699341 142.37441483 174.71699341 143.01144409 176.21362305 C148.27828607 188.58811222 153.53850915 200.96530494 158.75683594 213.36035156 C159.13614258 214.25979492 159.51544922 215.15923828 159.90625 216.0859375 C160.21884766 216.8289209 160.53144531 217.5719043 160.85351562 218.33740234 C162.53411533 222.24043053 164.26841859 226.11937176 166 230 C166.18695938 229.4781311 166.37391876 228.95626221 166.56654358 228.4185791 C172.22978045 212.61107118 177.89653157 196.8048243 183.56555176 180.99938965 C184.51672311 178.34748179 185.46781042 175.69554382 186.41882324 173.0435791 C197.79834701 141.31158037 209.21499237 109.5941142 220.75537109 77.92016602 C227.33509823 59.85687777 233.85717668 41.773172 240.35473633 23.68017578 C240.8925473 22.18334007 240.8925473 22.18334007 241.44122314 20.65626526 C242.10341505 18.81298028 242.76511924 16.96951997 243.4262085 15.12583923 C243.72263245 14.30064285 244.0190564 13.47544647 244.32446289 12.62524414 C244.70363609 11.56836143 244.70363609 11.56836143 245.09046936 10.49012756 C246.37074494 6.98496857 247.68972864 3.49405697 249 0 C271.77 0 294.54 0 318 0 C316.16924678 6.10251075 314.50194194 11.537548 312.05859375 17.3046875 C311.63964592 18.30091125 311.63964592 18.30091125 311.2122345 19.31726074 C310.60842989 20.75202026 310.00242722 22.18585641 309.39440918 23.61883545 C307.70345029 27.60571485 306.03062053 31.60020949 304.35546875 35.59375 C304.0008255 36.43811615 303.64618225 37.2824823 303.28079224 38.1524353 C299.20601512 47.86690785 295.22831191 57.62072837 291.25 67.375 C284.99412693 82.70240428 278.70202692 98.01432986 272.375 113.3125 C266.56279659 127.36664662 260.76556951 141.42665532 255 155.5 C249.59452808 168.69388979 244.16484793 181.87757654 238.7177124 195.05432129 C230.11050671 215.87538095 221.51793793 236.70221843 212.99749756 257.55895996 C211.98687216 260.03212599 210.97515547 262.50484379 209.96337891 264.97753906 C198.29221492 293.51812558 187.08127172 322.22593724 176 351 C175.03211909 353.51239111 174.06419545 356.02476571 173.09619141 358.53710938 C172.84931674 359.17786187 172.60244207 359.81861437 172.34808636 360.47878361 C170.34323522 365.68204604 168.33742889 370.88493996 166.33131123 376.0877142 C164.65066432 380.44701377 162.97303154 384.80746601 161.29614258 389.16821289 C160.40842671 391.47284244 159.52065284 393.77744965 158.6328125 396.08203125 C158.23774002 397.11128723 157.84266754 398.14054321 157.43562317 399.20098877 C154.73965923 406.19157157 151.8842239 413.07786265 149 420 C128.21 420 107.42 420 86 420 C89.01837002 412.15223796 92.03320018 404.40727827 95.40625 396.72265625 C95.80800446 395.80101685 96.20975891 394.87937744 96.62368774 393.92980957 C97.9132503 390.97292283 99.20661223 388.01771524 100.5 385.0625 C101.39988144 383.00070259 102.29945553 380.938771 103.19873047 378.87670898 C104.98009996 374.79235986 106.76258853 370.70850224 108.54589844 366.625 C110.65448555 361.7945592 112.75633749 356.96125045 114.8515625 352.125 C115.27660568 351.14411659 115.27660568 351.14411659 115.7102356 350.14341736 C117.02936461 347.09761939 118.34552622 344.05057166 119.65869141 341.00219727 C122.07325194 335.40415602 124.52155318 329.82640616 127.046875 324.27734375 C127.52495605 323.21507568 128.00303711 322.15280762 128.49560547 321.05834961 C129.382883 319.09110614 130.28202455 317.12914804 131.19580078 315.17407227 C131.5823584 314.31225342 131.96891602 313.45043457 132.3671875 312.5625 C132.70862793 311.82128906 133.05006836 311.08007812 133.40185547 310.31640625 C134.90333601 304.50169305 132.00631313 299.29319306 129.59765625 294.10546875 C129.24884903 293.33844635 128.90004181 292.57142395 128.54066467 291.78115845 C127.78445549 290.11979058 127.02511777 288.45984394 126.26300049 286.80117798 C124.19020403 282.28837477 122.14168449 277.764547 120.08984375 273.2421875 C119.45242249 271.83967491 119.45242249 271.83967491 118.80212402 270.40882874 C114.4923935 260.91330857 110.30063078 251.36756481 106.125 241.8125 C99.81763696 227.39564547 93.46165203 213.00135098 87.0625 198.625 C80.03559971 182.83700629 73.03292281 167.03860874 66.05450439 151.22912598 C60.70137499 139.10247528 55.32909526 126.98459283 49.9375 114.875 C43.95826106 101.4448184 38.03792624 87.98947707 32.1378479 74.52435303 C23.50069471 54.8173387 14.75822368 35.1573619 6.00439453 15.50195312 C5.67634827 14.76275635 5.348302 14.02355957 5.01031494 13.26196289 C4.29896247 11.66933783 3.57958723 10.08028407 2.85443115 8.49389648 C2.48722961 7.68573486 2.12002808 6.87757324 1.74169922 6.04492188 C1.40774139 5.31656128 1.07378357 4.58820068 0.72970581 3.83776855 C0 2 0 2 0 0 Z " fill="#E3CDA7" transform="translate(1591,124)"/>
<path d="M0 0 C1.07889541 4.03508963 0.83866348 6.83131268 -0.12402344 10.87597656 C-0.53004791 12.61237396 -0.53004791 12.61237396 -0.9442749 14.3838501 C-1.24625793 15.62358582 -1.54824097 16.86332153 -1.859375 18.140625 C-2.31694183 20.05751129 -2.31694183 20.05751129 -2.78375244 22.01312256 C-3.42931031 24.71132001 -4.08260862 27.40749712 -4.74121094 30.10253906 C-5.58560509 33.56133095 -6.40858294 37.02481721 -7.22567368 40.49014664 C-8.00798844 43.79329237 -8.80962666 47.09165657 -9.609375 50.390625 C-9.90326111 51.63845764 -10.19714722 52.88629028 -10.49993896 54.17193604 C-10.78323059 55.31692566 -11.06652222 56.46191528 -11.35839844 57.64160156 C-11.6034613 58.6546637 -11.84852417 59.66772583 -12.10101318 60.71148682 C-12.39767883 61.46669617 -12.69434448 62.22190552 -13 63 C-16.7237634 64.24125447 -17.76527511 63.55687285 -21.375 62.1875 C-40.85348038 55.46111829 -59.68580397 57.51042602 -78.1875 66.1875 C-96.15078847 75.61218498 -107.8014049 90.78268552 -114.9921875 109.5390625 C-118.01952691 119.93527459 -118.30509214 130.11884177 -118.31884766 140.85424805 C-118.32816245 142.53073095 -118.33833339 144.20720927 -118.34928894 145.88368225 C-118.3764283 150.40353822 -118.39169033 154.92336331 -118.40471697 159.44327903 C-118.42041831 164.1785151 -118.44718597 168.91368875 -118.4727478 173.64888 C-118.51941216 182.60164659 -118.55621577 191.55442508 -118.58942068 200.50725061 C-118.6277296 210.70565753 -118.67711662 220.90400157 -118.72740483 231.10235536 C-118.830541 252.06819612 -118.91839854 273.03406361 -119 294 C-138.47 294 -157.94 294 -178 294 C-178 197.31 -178 100.62 -178 1 C-158.53 1 -139.06 1 -119 1 C-118.67 17.5 -118.34 34 -118 51 C-115.69 47.37 -113.38 43.74 -111 40 C-95.2925526 18.63893825 -72.79709354 1.49070841 -46.37109375 -3.71484375 C-30.45767424 -6.13267214 -15.30905333 -4.91994987 0 0 Z " fill="#E2CDA7" transform="translate(531,123)"/>
<path d="M0 0 C19.14 0 38.28 0 58 0 C58 135.96 58 271.92 58 412 C38.86 412 19.72 412 0 412 C0 276.04 0 140.08 0 0 Z " fill="#E2CCA6" transform="translate(1515,5)"/>
<path d="M0 0 C2.93799048 2.11214989 5.49484897 4.39369085 8 7 C8.7425 7.763125 9.485 8.52625 10.25 9.3125 C18.34489903 21.74395209 18.85811591 37.57331528 16.31640625 51.8359375 C13.32360177 61.49735611 7.28865564 69.23015844 -1 75 C-12.15040726 80.69602847 -24.02228012 81.52718131 -36 78 C-46.09894411 74.12974597 -52.52580938 68.36869315 -57 58.5078125 C-61.88770264 46.25037072 -61.6963743 31.19073226 -57.26171875 18.8359375 C-52.63525659 8.43714019 -45.58968316 1.25770766 -35 -3 C-24.43980227 -6.0495436 -9.50602627 -5.61495852 0 0 Z " fill="#C86D00" transform="translate(1957,343)"/>
</svg>
